<svg version="1.1" id="Layer_1" xmlns="http://www.w3.org/2000/svg" xmlns:xlink="http://www.w3.org/1999/xlink" x="0px" y="0px"
	 width="100%" viewBox="0 0 512 512" enable-background="new 0 0 512 512" xml:space="preserve">
<path fill="#000000" opacity="1.000000" stroke="none" 
	d="
M276.000000,513.000000 
	C184.022324,513.000000 92.544647,513.000000 1.033484,513.000000 
	C1.033484,342.397308 1.033484,171.794586 1.033484,1.095938 
	C171.561035,1.095938 342.122131,1.095938 512.841614,1.095938 
	C512.841614,171.666550 512.841614,342.333252 512.841614,513.000000 
	C434.127899,513.000000 355.313934,513.000000 276.000000,513.000000 
M473.462372,492.815430 
	C473.706665,492.606049 473.908264,492.361450 474.464691,491.817413 
	C474.709961,491.609802 474.912537,491.366608 475.468475,490.821381 
	C475.712769,490.612671 475.914764,490.368958 476.470123,489.822937 
	C476.714050,489.613892 476.915833,489.369965 477.471863,488.824310 
	C477.715881,488.614685 477.916229,488.369385 478.469391,487.822449 
	C478.713867,487.613983 478.916290,487.370544 479.472717,486.824768 
	C479.716644,486.614990 479.917084,486.369690 480.469971,485.822510 
	C480.714081,485.613861 480.915985,485.370239 481.471985,484.824585 
	C481.715973,484.614838 481.916290,484.369476 482.469269,483.822388 
	C482.713623,483.613861 482.915771,483.370270 483.212708,482.972351 
	C483.212708,482.972351 483.147400,482.690063 483.147400,482.690063 
	C483.147400,482.690063 482.882843,482.904022 482.488586,483.170624 
	C482.230743,483.369568 482.030487,483.615448 481.489502,484.169739 
	C481.229218,484.366516 481.027008,484.611267 480.488678,485.170959 
	C480.230896,485.370148 480.030823,485.616241 479.489838,486.170349 
	C479.229431,486.367157 479.027283,486.612091 478.488831,487.171082 
	C478.230865,487.369812 478.030548,487.615540 477.489594,488.169861 
	C477.229340,488.366760 477.027191,488.611633 476.488342,489.170380 
	C476.230133,489.368774 476.028900,489.613953 475.489899,490.171936 
	C475.231934,490.370789 475.031281,490.616425 474.493713,491.175995 
	C474.236847,491.376465 474.038177,491.623749 473.498077,492.178741 
	C473.238098,492.375885 473.033722,492.619659 472.791626,493.017517 
	C472.791626,493.017517 472.842102,493.234222 472.842102,493.234222 
	C472.842102,493.234222 473.066925,493.083984 473.462372,492.815430 
M369.151978,410.347809 
	C387.531891,428.728668 405.903320,447.118042 424.297089,465.485016 
	C429.559235,470.739502 433.064789,470.773285 438.288391,465.587067 
	C446.922089,457.015289 455.503265,448.390533 464.104431,439.785950 
	C471.299774,432.587738 471.308350,430.082642 464.155182,422.929260 
	C414.659821,373.432617 365.127411,323.972839 315.750824,274.357941 
	C312.569153,271.160889 309.664490,267.081970 308.238556,262.869171 
	C305.203461,253.902390 308.701599,246.428268 315.237854,239.906631 
	C365.261017,189.995163 415.206848,140.006134 465.167389,90.031914 
	C470.915588,84.282158 470.918060,81.037697 465.213684,75.313461 
	C456.625793,66.695694 448.012268,58.103382 439.402191,49.507748 
	C432.692993,42.809872 429.987762,42.811356 423.272430,49.527176 
	C373.896057,98.907112 324.525848,148.293213 275.146118,197.669769 
	C262.954590,209.860504 250.977768,209.786789 238.693161,197.499100 
	C189.203323,147.996948 139.712753,98.495506 90.216972,48.999306 
	C84.265358,43.047634 81.112854,43.046833 75.166901,48.977119 
	C66.670708,57.450928 58.189362,65.939659 49.709652,74.429977 
	C42.755520,81.392807 42.750748,83.945816 49.689857,90.885399 
	C99.184158,140.383057 148.720932,189.838409 198.089096,239.461533 
	C201.376831,242.766235 204.336945,247.020142 205.801315,251.385422 
	C208.819885,260.383728 205.091980,267.800873 198.587112,274.291382 
	C148.564606,324.203552 98.618179,374.191925 48.657875,424.166412 
	C43.174183,429.651672 43.177620,433.023621 48.631500,438.499481 
	C57.217072,447.119568 65.827003,455.715454 74.434471,464.313721 
	C81.370697,471.242493 84.024597,471.242340 90.924881,464.342102 
	C140.303238,414.964203 189.680511,365.585144 239.060043,316.208374 
	C251.209564,304.059570 262.826874,304.032501 274.961304,316.160767 
	C306.198883,347.382416 337.422638,378.617889 369.151978,410.347809 
M470.514648,494.522430 
	C470.514648,494.522430 470.500275,494.486023 470.514648,494.522430 
z"/>
<path fill="#F24336" opacity="1.000000" stroke="none" 
	d="
M368.901978,410.097839 
	C337.422638,378.617889 306.198883,347.382416 274.961304,316.160767 
	C262.826874,304.032501 251.209564,304.059570 239.060043,316.208374 
	C189.680511,365.585144 140.303238,414.964203 90.924881,464.342102 
	C84.024597,471.242340 81.370697,471.242493 74.434471,464.313721 
	C65.827003,455.715454 57.217072,447.119568 48.631500,438.499481 
	C43.177620,433.023621 43.174183,429.651672 48.657875,424.166412 
	C98.618179,374.191925 148.564606,324.203552 198.587112,274.291382 
	C205.091980,267.800873 208.819885,260.383728 205.801315,251.385422 
	C204.336945,247.020142 201.376831,242.766235 198.089096,239.461533 
	C148.720932,189.838409 99.184158,140.383057 49.689857,90.885399 
	C42.750748,83.945816 42.755520,81.392807 49.709652,74.429977 
	C58.189362,65.939659 66.670708,57.450928 75.166901,48.977119 
	C81.112854,43.046833 84.265358,43.047634 90.216972,48.999306 
	C139.712753,98.495506 189.203323,147.996948 238.693161,197.499100 
	C250.977768,209.786789 262.954590,209.860504 275.146118,197.669769 
	C324.525848,148.293213 373.896057,98.907112 423.272430,49.527176 
	C429.987762,42.811356 432.692993,42.809872 439.402191,49.507748 
	C448.012268,58.103382 456.625793,66.695694 465.213684,75.313461 
	C470.918060,81.037697 470.915588,84.282158 465.167389,90.031914 
	C415.206848,140.006134 365.261017,189.995163 315.237854,239.906631 
	C308.701599,246.428268 305.203461,253.902390 308.238556,262.869171 
	C309.664490,267.081970 312.569153,271.160889 315.750824,274.357941 
	C365.127411,323.972839 414.659821,373.432617 464.155182,422.929260 
	C471.308350,430.082642 471.299774,432.587738 464.104431,439.785950 
	C455.503265,448.390533 446.922089,457.015289 438.288391,465.587067 
	C433.064789,470.773285 429.559235,470.739502 424.297089,465.485016 
	C405.903320,447.118042 387.531891,428.728668 368.901978,410.097839 
z"/>
<path fill="#2F0E0D" opacity="1.000000" stroke="none" 
	d="
M482.882843,482.904022 
	C482.882843,482.904022 483.147400,482.690063 483.147400,482.690063 
	C483.147400,482.690063 483.212708,482.972351 483.097229,482.983795 
	C482.981750,482.995239 482.882843,482.904022 482.882843,482.904022 
z"/>
<path fill="#2F0E0D" opacity="1.000000" stroke="none" 
	d="
M483.028717,483.043457 
	C482.915771,483.370270 482.713623,483.613861 482.226105,483.909058 
	C481.982941,483.995728 481.887817,483.908234 481.887817,483.908234 
	C482.030487,483.615448 482.230743,483.369568 482.685730,483.037323 
	C482.882843,482.904022 482.981750,482.995239 483.028717,483.043457 
z"/>
<path fill="#2F0E0D" opacity="1.000000" stroke="none" 
	d="
M482.027954,484.042084 
	C481.916290,484.369476 481.715973,484.614838 481.226868,484.909943 
	C480.981750,484.995300 480.882874,484.904022 480.882874,484.904022 
	C481.027008,484.611267 481.229218,484.366516 481.688660,484.039001 
	C481.887817,483.908234 481.982941,483.995728 482.027954,484.042084 
z"/>
<path fill="#2F0E0D" opacity="1.000000" stroke="none" 
	d="
M481.028717,485.043457 
	C480.915985,485.370239 480.714081,485.613861 480.226196,485.908661 
	C479.982391,485.994812 479.888489,485.909241 479.888489,485.909241 
	C480.030823,485.616241 480.230896,485.370148 480.685791,485.037476 
	C480.882874,484.904022 480.981750,484.995300 481.028717,485.043457 
z"/>
<path fill="#2F0E0D" opacity="1.000000" stroke="none" 
	d="
M478.883392,486.905121 
	C479.027283,486.612091 479.229431,486.367157 479.689148,486.039795 
	C479.888489,485.909241 479.982391,485.994812 480.028259,486.041870 
	C479.917084,486.369690 479.716644,486.614990 479.226929,486.909607 
	C478.981140,486.994415 478.883392,486.905121 478.883392,486.905121 
z"/>
<path fill="#2F0E0D" opacity="1.000000" stroke="none" 
	d="
M477.887817,487.908234 
	C478.030548,487.615540 478.230865,487.369812 478.686096,487.038086 
	C478.883392,486.905121 478.981140,486.994415 479.028870,487.043274 
	C478.916290,487.370544 478.713867,487.613983 478.226166,487.909088 
	C477.982941,487.995728 477.887817,487.908234 477.887817,487.908234 
z"/>
<path fill="#2F0E0D" opacity="1.000000" stroke="none" 
	d="
M478.027954,488.042084 
	C477.916229,488.369385 477.715881,488.614685 477.226837,488.909790 
	C476.981812,488.995270 476.883148,488.904480 476.883148,488.904480 
	C477.027191,488.611633 477.229340,488.366760 477.688721,488.039062 
	C477.887817,487.908234 477.982941,487.995728 478.027954,488.042084 
z"/>
<path fill="#2F0E0D" opacity="1.000000" stroke="none" 
	d="
M477.028687,489.043213 
	C476.915833,489.369965 476.714050,489.613892 476.226074,489.909210 
	C475.982056,489.995483 475.884705,489.905914 475.884705,489.905914 
	C476.028900,489.613953 476.230133,489.368774 476.685730,489.037415 
	C476.883148,488.904480 476.981812,488.995270 477.028687,489.043213 
z"/>
<path fill="#2F0E0D" opacity="1.000000" stroke="none" 
	d="
M476.028259,490.042847 
	C475.914764,490.368958 475.712769,490.612671 475.225586,490.908569 
	C474.982666,490.995789 474.887970,490.908905 474.887970,490.908905 
	C475.031281,490.616425 475.231934,490.370789 475.687317,490.038940 
	C475.884705,489.905914 475.982056,489.995483 476.028259,490.042847 
z"/>
<path fill="#2F0E0D" opacity="1.000000" stroke="none" 
	d="
M475.027527,491.041809 
	C474.912537,491.366608 474.709961,491.609802 474.224121,491.906555 
	C473.983582,491.995697 473.897736,491.917816 473.897736,491.917816 
	C474.038177,491.623749 474.236847,491.376465 474.690857,491.042450 
	C474.887970,490.908905 474.982666,490.995789 475.027527,491.041809 
z"/>
<path fill="#2F0E0D" opacity="1.000000" stroke="none" 
	d="
M472.884949,492.910095 
	C473.033722,492.619659 473.238098,492.375885 473.697906,492.048279 
	C473.897736,491.917816 473.983582,491.995697 474.025391,492.038696 
	C473.908264,492.361450 473.706665,492.606049 473.220093,492.905273 
	C472.977783,492.995148 472.884949,492.910095 472.884949,492.910095 
z"/>
<path fill="#2F0E0D" opacity="1.000000" stroke="none" 
	d="
M473.022339,493.039551 
	C473.066925,493.083984 472.842102,493.234222 472.842102,493.234222 
	C472.842102,493.234222 472.791626,493.017517 472.838287,492.963806 
	C472.884949,492.910095 472.977783,492.995148 473.022339,493.039551 
z"/>
<path fill="#2F0E0D" opacity="1.000000" stroke="none" 
	d="
M470.507446,494.504211 
	C470.500275,494.486023 470.514648,494.522430 470.507446,494.504211 
z"/>
</svg>