<svg width="15" height="19" viewBox="0 0 15 19" fill="none" xmlns="http://www.w3.org/2000/svg">
<path fill-rule="evenodd" clip-rule="evenodd" d="M13.8269 5.85939C13.5409 5.61026 13.0887 5.37035 12.4151 5.37035H9.77154C9.77154 5.37035 8.60891 5.32883 8.60891 3.96781V1.55951C8.60891 1.55951 8.44743 0.595263 8.12909 0.318447C8.07834 0.276924 8.07373 0.249243 8.0968 0.244629C8.09218 0.244629 8.08757 0.249243 8.08757 0.249243L13.8269 5.7948V5.85478V5.85939ZM8.1983 0.249243C8.21214 0.253856 8.22137 0.253856 8.23521 0.25847C8.22137 0.253856 8.20752 0.253856 8.1983 0.249243ZM8.47511 0.341515C8.49357 0.350742 8.51664 0.359969 8.5397 0.369196C8.51664 0.359969 8.49818 0.350742 8.47511 0.341515Z" fill="url(#paint0_linear_94_2774)"/>
<path fill-rule="evenodd" clip-rule="evenodd" d="M6.49135 0H1.19954C0.539792 0 0 0.539792 0 1.19954V17.4487C0 18.1038 0.525952 18.6344 1.17647 18.6482H4.24452H2.78662H13.0334C13.6932 18.6482 14.233 18.1084 14.233 17.4487V7.70934C14.233 5.90542 12.6736 5.82699 12.6736 5.82699H9.71165C8.15225 5.82699 8.18916 4.22607 8.18916 4.22607V1.78547C8.18916 -0.0599769 6.50519 0.023068 6.50519 0.023068L6.49596 0.0138408L6.49135 0ZM13.8362 5.85928C13.5502 5.60554 13.098 5.37024 12.4245 5.37024H9.78085C9.78085 5.37024 8.61822 5.32872 8.61822 3.9677V1.5594C8.61822 1.5594 8.45675 0.595156 8.13841 0.318339C8.1015 0.286044 8.08766 0.262976 8.09689 0.249135L13.8316 5.79008V5.7301C12.3368 3.46943 11.0911 2.35294 10.2145 1.47636C9.79469 1.05652 9.28258 0.72895 8.86736 0.516724C9.2872 0.72895 9.79931 1.05652 10.2238 1.48097C11.1003 2.35755 12.346 3.47405 13.8408 5.73472V5.85928H13.8362Z" fill="#E31E24"/>
<path d="M2.66211 9.42549H4.29071C4.64596 9.42549 4.90894 9.50853 5.08887 9.67924C5.2688 9.84994 5.35184 10.0852 5.35184 10.399C5.35184 10.7173 5.25034 10.9664 5.06119 11.1464C4.86742 11.3263 4.57676 11.4186 4.17999 11.4186H3.64481V12.5904H2.66211V9.4301V9.42549ZM3.64481 10.7773H3.88472C4.07849 10.7773 4.20306 10.7404 4.28149 10.6758C4.35992 10.6112 4.39683 10.5281 4.39683 10.4266C4.39683 10.3251 4.35992 10.2421 4.29533 10.1729C4.23074 10.1037 4.10156 10.0668 3.91701 10.0668H3.64019V10.7773H3.64481ZM5.86857 9.42549H7.31724C7.60329 9.42549 7.83397 9.4624 8.0139 9.54083C8.19383 9.61926 8.33224 9.7346 8.45219 9.87301C8.56753 10.0206 8.65058 10.1867 8.70133 10.3759C8.75208 10.5697 8.77976 10.7727 8.77976 10.9849C8.77976 11.3263 8.74285 11.58 8.66442 11.7738C8.58599 11.9584 8.47987 12.1152 8.34608 12.2444C8.21228 12.3736 8.06003 12.4566 7.90317 12.4935C7.69094 12.5489 7.49717 12.5766 7.32186 12.5766H5.87318V9.41626L5.86396 9.42549H5.86857ZM6.84204 10.1452V11.8707H7.08195C7.28956 11.8707 7.42797 11.8476 7.52485 11.8015C7.6079 11.76 7.68172 11.6723 7.73247 11.5662C7.78322 11.4509 7.80167 11.2663 7.80167 11.0172C7.80167 10.685 7.74631 10.4543 7.64019 10.3298C7.53408 10.2098 7.34954 10.1452 7.09118 10.1452H6.85127H6.84204ZM9.29187 9.42549H11.7094V10.1083H10.2746V10.6619H11.5018V11.3032H10.2746V12.5904H9.29187V9.4301V9.42549Z" fill="white"/>
<defs>
<linearGradient id="paint0_linear_94_2774" x1="12.9922" y1="0.137639" x2="8.91064" y2="5.96181" gradientUnits="userSpaceOnUse">
<stop stop-color="#A42421"/>
<stop offset="1" stop-color="#E31E24"/>
</linearGradient>
</defs>
</svg>
